<mxfile host="app.diagrams.net" modified="2024-01-26T13:45:15.779Z" agent="Mozilla/5.0 (Windows NT 10.0; Win64; x64) AppleWebKit/537.36 (KHTML, like Gecko) Chrome/121.0.0.0 Safari/537.36" etag="FyYEJvJF04s9DXcwU0Jk" version="23.0.2" type="github">
  <diagram id="07fea595-8f29-1299-0266-81d95cde20df" name="Page-1">
    <mxGraphModel dx="-904" dy="-55" grid="1" gridSize="10" guides="1" tooltips="1" connect="1" arrows="1" fold="1" page="1" pageScale="1" pageWidth="1169" pageHeight="827" background="none" math="0" shadow="0">
      <root>
        <mxCell id="0" />
        <mxCell id="1" parent="0" />
        <mxCell id="727" value="" style="edgeStyle=none;html=1;fontColor=#003366;strokeWidth=3;strokeColor=#003366;opacity=60;" parent="1" edge="1">
          <mxGeometry width="100" height="100" relative="1" as="geometry">
            <mxPoint x="2749.5" y="1466" as="sourcePoint" />
            <mxPoint x="2749.5" y="986" as="targetPoint" />
          </mxGeometry>
        </mxCell>
        <mxCell id="734" value="" style="edgeStyle=none;html=1;fontColor=#0070E0;strokeWidth=3;strokeColor=#003366;labelBackgroundColor=none;opacity=50;" parent="1" edge="1">
          <mxGeometry width="100" height="100" relative="1" as="geometry">
            <mxPoint x="2430" y="1464" as="sourcePoint" />
            <mxPoint x="3350" y="1464" as="targetPoint" />
          </mxGeometry>
        </mxCell>
        <mxCell id="737" value="Estratégia" style="text;spacingTop=-5;align=center;verticalAlign=middle;fontStyle=0;html=1;fontSize=18;points=[];strokeColor=none;fontColor=#1A1A1A;" parent="1" vertex="1">
          <mxGeometry x="2747.5" y="1410" width="120" height="30" as="geometry" />
        </mxCell>
        <mxCell id="747" value="Aprendizado real" style="text;spacingTop=-5;align=center;verticalAlign=middle;fontStyle=0;html=1;fontSize=18;points=[];rotation=0;fontColor=#006600;" parent="1" vertex="1">
          <mxGeometry x="3000" y="1435" width="30" height="129.99999999999977" as="geometry" />
        </mxCell>
        <mxCell id="749" value="&lt;font style=&quot;font-size: 30px;&quot;&gt;Curva da verdade&lt;/font&gt;" style="text;spacingTop=-5;align=center;verticalAlign=middle;fontSize=30;fontStyle=1;html=1;points=[]" parent="1" vertex="1">
          <mxGeometry x="2420" y="874.5" width="810" height="45" as="geometry" />
        </mxCell>
        <mxCell id="Yprm-d9gtmLNCcn2EOaZ-753" value="" style="rounded=1;whiteSpace=wrap;html=1;fillColor=#CC6600;strokeColor=#b85450;gradientColor=#FFFFFF;aspect=fixed;opacity=50;" vertex="1" parent="1">
          <mxGeometry x="2462.5" y="1013.5" width="285" height="452.5" as="geometry" />
        </mxCell>
        <mxCell id="736" value="Fantasia" style="text;spacingTop=-5;align=center;verticalAlign=middle;fontStyle=0;html=1;fontSize=18;points=[];strokeColor=none;fillColor=none;fontColor=#FF8000;" parent="1" vertex="1">
          <mxGeometry x="2517.5" y="1480" width="172.5" height="40" as="geometry" />
        </mxCell>
        <mxCell id="Yprm-d9gtmLNCcn2EOaZ-755" value="" style="curved=1;endArrow=classic;html=1;rounded=0;strokeWidth=6;strokeColor=#009900;entryX=0.181;entryY=1.325;entryDx=0;entryDy=0;entryPerimeter=0;shadow=1;opacity=70;" edge="1" parent="1">
          <mxGeometry width="50" height="50" relative="1" as="geometry">
            <mxPoint x="2770.52" y="1386.75" as="sourcePoint" />
            <mxPoint x="3310" y="1023.25" as="targetPoint" />
            <Array as="points">
              <mxPoint x="2830.52" y="1386.75" />
              <mxPoint x="3060.52" y="1316.75" />
              <mxPoint x="3210.52" y="1176.75" />
            </Array>
          </mxGeometry>
        </mxCell>
        <mxCell id="Yprm-d9gtmLNCcn2EOaZ-760" value="Cronograma" style="text;spacingTop=-5;align=center;verticalAlign=middle;fontStyle=0;html=1;fontSize=18;points=[];strokeColor=none;fontColor=#1A1A1A;" vertex="1" parent="1">
          <mxGeometry x="2955" y="1380" width="120" height="30" as="geometry" />
        </mxCell>
        <mxCell id="Yprm-d9gtmLNCcn2EOaZ-762" value="Mídias" style="text;spacingTop=-5;align=center;verticalAlign=middle;fontStyle=0;html=1;fontSize=18;points=[];strokeColor=none;fontColor=#003366;" vertex="1" parent="1">
          <mxGeometry x="3080" y="1299.5" width="120" height="30" as="geometry" />
        </mxCell>
        <mxCell id="Yprm-d9gtmLNCcn2EOaZ-764" value="Canais" style="text;spacingTop=-5;align=center;verticalAlign=middle;fontStyle=0;html=1;fontSize=18;points=[];strokeColor=none;fontColor=#003366;" vertex="1" parent="1">
          <mxGeometry x="3020" y="1340" width="120" height="22" as="geometry" />
        </mxCell>
        <mxCell id="Yprm-d9gtmLNCcn2EOaZ-777" value="Protótipo" style="text;spacingTop=-5;align=center;verticalAlign=middle;fontStyle=0;html=1;fontSize=18;points=[];strokeColor=none;fontColor=#003366;" vertex="1" parent="1">
          <mxGeometry x="3150" y="1250" width="120" height="30" as="geometry" />
        </mxCell>
        <mxCell id="Yprm-d9gtmLNCcn2EOaZ-779" value="MVP" style="text;spacingTop=-5;align=center;verticalAlign=middle;fontStyle=0;html=1;fontSize=18;points=[];strokeColor=none;fontColor=#003366;" vertex="1" parent="1">
          <mxGeometry x="3200" y="1190" width="120" height="30" as="geometry" />
        </mxCell>
        <mxCell id="Yprm-d9gtmLNCcn2EOaZ-780" value="Monitoramento" style="text;spacingTop=-5;align=center;verticalAlign=middle;fontStyle=0;html=1;fontSize=18;points=[];strokeColor=none;fontColor=#003333;" vertex="1" parent="1">
          <mxGeometry x="3260" y="1139.5" width="120" height="30" as="geometry" />
        </mxCell>
        <mxCell id="Yprm-d9gtmLNCcn2EOaZ-781" value="Análise" style="text;spacingTop=-5;align=center;verticalAlign=middle;fontStyle=1;html=1;fontSize=18;points=[];strokeColor=none;fontColor=#00331A;" vertex="1" parent="1">
          <mxGeometry x="3290" y="1090" width="120" height="30" as="geometry" />
        </mxCell>
        <mxCell id="Yprm-d9gtmLNCcn2EOaZ-782" value="Ações" style="text;spacingTop=-5;align=center;verticalAlign=middle;fontStyle=1;html=1;fontSize=18;points=[];strokeColor=none;fontColor=#003333;" vertex="1" parent="1">
          <mxGeometry x="3310" y="1030" width="120" height="30" as="geometry" />
        </mxCell>
        <mxCell id="Yprm-d9gtmLNCcn2EOaZ-784" value="Planejamento" style="text;spacingTop=-5;align=center;verticalAlign=middle;fontStyle=0;html=1;fontSize=18;points=[];strokeColor=none;fontColor=#1A1A1A;" vertex="1" parent="1">
          <mxGeometry x="2867.5" y="1405" width="120" height="30" as="geometry" />
        </mxCell>
        <mxCell id="Yprm-d9gtmLNCcn2EOaZ-785" value="" style="verticalLabelPosition=bottom;verticalAlign=top;html=1;shape=mxgraph.basic.tick;fillColor=#d5e8d4;strokeColor=#82b366;" vertex="1" parent="1">
          <mxGeometry x="2770" y="1340" width="40" height="40" as="geometry" />
        </mxCell>
        <mxCell id="Yprm-d9gtmLNCcn2EOaZ-786" value="" style="verticalLabelPosition=bottom;verticalAlign=top;html=1;shape=mxgraph.basic.tick;fillColor=#dae8fc;strokeColor=#6c8ebf;" vertex="1" parent="1">
          <mxGeometry x="2870" y="1322" width="40" height="40" as="geometry" />
        </mxCell>
        <mxCell id="Yprm-d9gtmLNCcn2EOaZ-787" value="" style="verticalLabelPosition=bottom;verticalAlign=top;html=1;shape=mxgraph.basic.tick;fillColor=#dae8fc;strokeColor=#6c8ebf;" vertex="1" parent="1">
          <mxGeometry x="2955" y="1300" width="40" height="40" as="geometry" />
        </mxCell>
        <mxCell id="Yprm-d9gtmLNCcn2EOaZ-788" value="" style="verticalLabelPosition=bottom;verticalAlign=top;html=1;shape=mxgraph.basic.tick;fillColor=#dae8fc;strokeColor=#6c8ebf;" vertex="1" parent="1">
          <mxGeometry x="3030" y="1260" width="40" height="40" as="geometry" />
        </mxCell>
      </root>
    </mxGraphModel>
  </diagram>
</mxfile>
